<svg width="40" height="40" viewBox="0 0 40 40" fill="none" xmlns="http://www.w3.org/2000/svg">
<g clip-path="url(#clip0)">
<path d="M35.4998 13.7262C33.3495 10.7769 31.2334 8.44521 31.1443 8.34741C30.9222 8.10346 30.6077 7.96442 30.2778 7.96442C29.9479 7.96442 29.6333 8.10346 29.4113 8.34741C29.3563 8.4078 28.2777 9.59576 26.8847 11.3369C26.8376 11.2719 26.7915 11.2075 26.7439 11.1421C23.8177 7.12875 20.94 3.95792 20.8189 3.82489C20.5968 3.58094 20.2822 3.44189 19.9524 3.44189C19.6225 3.44189 19.3079 3.58094 19.0858 3.82489C18.9647 3.95792 16.087 7.12875 13.1608 11.1421C13.1284 11.1866 13.0972 11.2302 13.0651 11.2744C11.6959 9.56686 10.6425 8.40655 10.5886 8.34741C10.3666 8.10346 10.0519 7.96442 9.72207 7.96442C9.39219 7.96442 9.07754 8.10346 8.85554 8.34741C8.76649 8.44521 6.65045 10.7769 4.50003 13.7262C1.5141 17.8218 0 21.0081 0 23.1966C0 28.5017 4.36137 32.8177 9.72222 32.8177C10.0805 32.8177 10.4395 32.7982 10.7951 32.7595C13.1291 35.103 16.372 36.5584 19.9524 36.5584C23.5379 36.5584 26.7848 35.0989 29.1196 32.7496C29.5031 32.7947 29.8906 32.8178 30.2778 32.8178C35.6386 32.8178 40 28.5018 40 23.1967C40 21.0081 38.486 17.8218 35.4998 13.7262ZM2.34344 23.1966C2.34344 22.2516 2.86806 19.9461 6.38173 15.1232C7.64047 13.3954 8.91179 11.8602 9.7223 10.9139C10.2283 11.5045 10.9136 12.3243 11.6623 13.2761C8.62807 17.7756 7.0914 21.3218 7.0914 23.8357C7.0914 26.2504 7.77506 28.5102 8.96092 30.4357C5.24852 30.0587 2.34344 26.956 2.34344 23.1966ZM19.9524 34.215C14.153 34.215 9.43484 29.5589 9.43484 23.8357C9.43484 19.3734 16.3692 10.4912 19.9527 6.37705C23.5361 10.4899 30.4703 19.3702 30.4703 23.8357C30.4701 29.5588 25.7519 34.215 19.9524 34.215ZM30.9383 30.4448C32.1276 28.5174 32.8135 26.2543 32.8135 23.8357C32.8135 21.334 31.2915 17.81 28.2865 13.3415C29.0551 12.362 29.7603 11.518 30.2777 10.914C31.0882 11.8602 32.3595 13.3955 33.6183 15.1232C37.132 19.9461 37.6566 22.2517 37.6566 23.1967C37.6566 26.9899 34.6987 30.1141 30.9383 30.4448Z" fill="#4E2F2D"/>
<path d="M25.5696 19.5623L21.1921 19.553V15.5175C21.1921 14.9938 20.8447 14.5337 20.341 14.3904C19.8377 14.2473 19.2998 14.4555 19.0242 14.9008L13.3417 24.0811C13.1181 24.4425 13.1075 24.8965 13.3142 25.2678C13.521 25.6391 13.9126 25.8693 14.3375 25.8695L18.6829 25.871V29.9046C18.6829 30.4276 19.0296 30.8873 19.5325 31.0311C19.6392 31.0617 19.7476 31.0764 19.8547 31.0764C20.2518 31.0764 20.6314 30.8737 20.8491 30.5241L26.5617 21.3535C26.7865 20.9926 26.7981 20.5383 26.5922 20.1663C26.3861 19.7943 25.9947 19.5631 25.5696 19.5623ZM21.0263 25.8074V24.6998C21.0263 24.0528 20.5019 23.5283 19.8551 23.5281L16.4407 23.5268L18.8487 19.6366V20.7221C18.8487 21.3682 19.3718 21.8924 20.0179 21.8938L23.4596 21.9012L21.0263 25.8074Z" fill="#4E2F2D"/>
</g>
<defs>
<clipPath id="clip0">
<rect width="40" height="40" fill="white"/>
</clipPath>
</defs>
</svg>
