<svg width="40" height="40" viewBox="0 0 40 40" fill="none" xmlns="http://www.w3.org/2000/svg">
<g clip-path="url(#clip0)">
<path d="M19.5276 20.8901L10.7013 24.9213L4.58748 22.1154L11.2697 19.0165L10.1302 16.5591L0.784699 20.8932C0.30524 21.1158 -0.000935364 21.5966 2.1469e-06 22.1249C0.000939658 22.6535 0.309225 23.1325 0.789621 23.3533L10.1351 27.6423C10.3143 27.7244 10.5072 27.7655 10.6999 27.7655C10.8918 27.7655 11.0841 27.7245 11.2624 27.6427L20.6531 23.3538L19.5276 20.8901Z" fill="#4E2F2D"/>
<path d="M19.523 32.0437L10.7013 36.115L2.70886 32.4084V22.1221H0V33.2735C0 33.8008 0.306097 34.2807 0.784697 34.5024L10.1301 38.8365C10.3107 38.92 10.5053 38.962 10.6999 38.962C10.8936 38.962 11.0877 38.9204 11.2679 38.8369L20.6585 34.5028L19.523 32.0437Z" fill="#4E2F2D"/>
<path d="M12.0543 26.6367H9.34546V37.4721H12.0543V26.6367Z" fill="#4E2F2D"/>
<path d="M39.2154 20.8932L29.8704 16.5591L28.7305 19.0165L35.4127 22.1154L29.2994 24.9213L20.4726 20.8905L19.3472 23.3542L28.7382 27.6432C28.9166 27.7244 29.1085 27.7655 29.3007 27.7655C29.4935 27.7655 29.6867 27.7244 29.865 27.6423L39.2101 23.3533C39.6905 23.1325 39.9988 22.6535 39.9997 22.1249C40.0005 21.5966 39.6949 21.1153 39.2154 20.8932Z" fill="#4E2F2D"/>
<path d="M37.2912 22.1221V32.4089L29.2993 36.1155L20.4775 32.0441L19.342 34.5033L28.7331 38.8374C28.9132 38.9205 29.1069 38.962 29.3006 38.962C29.4952 38.962 29.6902 38.9201 29.8704 38.8365L39.2154 34.5024C39.6939 34.2803 40.0001 33.8008 40.0001 33.2735V22.1221H37.2912Z" fill="#4E2F2D"/>
<path d="M30.6549 26.6367H27.946V37.4721H30.6549V26.6367Z" fill="#4E2F2D"/>
<path d="M29.9155 5.49783L20.57 1.16371C20.2089 0.99621 19.7921 0.99621 19.4305 1.16371L10.085 5.49783C9.60554 5.72041 9.29897 6.2008 9.3003 6.7294C9.30163 7.25808 9.60999 7.73754 10.0899 7.95785L19.4354 12.2468C19.6146 12.329 19.8075 12.3701 20.0002 12.3701C20.1929 12.3701 20.3857 12.329 20.565 12.2468L29.9105 7.95785C30.3909 7.73707 30.6993 7.25808 30.7002 6.7294C30.7011 6.20072 30.3954 5.72041 29.9155 5.49783ZM20.0003 9.52537L13.8878 6.72034L20.0003 3.88562L26.1128 6.72042L20.0003 9.52537Z" fill="#4E2F2D"/>
<path d="M27.9912 6.72681V17.0132L20.0002 20.7192L12.0092 17.0131V6.72681H9.30029V17.8782C9.30029 18.4055 9.60639 18.885 10.085 19.1066L19.4305 23.4412C19.6111 23.5247 19.8057 23.5668 20.0003 23.5668C20.1949 23.5668 20.3894 23.5248 20.57 23.4417L29.916 19.1071C30.3941 18.885 30.7002 18.4055 30.7002 17.8782V6.72681H27.9912Z" fill="#4E2F2D"/>
<path d="M21.3546 11.2415H18.6458V33.3184H21.3546V11.2415Z" fill="#4E2F2D"/>
</g>
<defs>
<clipPath id="clip0">
<rect width="40" height="40" fill="white"/>
</clipPath>
</defs>
</svg>
