<svg width="40" height="40" viewBox="0 0 40 40" fill="none" xmlns="http://www.w3.org/2000/svg">
<path d="M35.5846 16.42H13.1026C12.3117 16.42 11.6707 17.0611 11.6707 17.852V30.5011C11.6707 35.7389 15.9317 40 21.1695 40H27.5179C32.7557 40 37.0167 35.7604 37.0167 30.5489V17.852C37.0167 17.0611 36.3756 16.42 35.5846 16.42ZM34.1522 30.5484C34.1522 34.1808 31.176 37.1355 27.5178 37.1355H21.1689C17.5107 37.1355 14.5346 34.1593 14.5346 30.5011V19.284H34.1522V30.5484Z" fill="#4E2F2D"/>
<path d="M9.04531 23.2463H13.1026V20.3823H9.04531C5.70257 20.3823 2.98328 23.1016 2.98328 26.4444C2.98328 29.7866 5.70257 32.5059 9.04531 32.5059H13.1026V29.6419H9.04531C7.28203 29.6419 5.84718 28.2076 5.84718 26.4443C5.84726 24.6812 7.2821 23.2463 9.04531 23.2463Z" fill="#4E2F2D"/>
<path d="M35.5846 16.42H13.1026C12.3117 16.42 11.6707 17.0611 11.6707 17.852V30.5011C11.6707 35.7389 15.9317 40 21.1695 40H27.5179C32.7557 40 37.0167 35.7604 37.0167 30.5489V17.852C37.0167 17.0611 36.3756 16.42 35.5846 16.42ZM34.1522 30.5484C34.1522 34.1808 31.176 37.1355 27.5178 37.1355H21.1689C17.5107 37.1355 14.5346 34.1593 14.5346 30.5011V19.284H34.1522V30.5484Z" fill="#4E2F2D"/>
<path d="M24.6539 6.63437C24.6539 5.8568 24.937 5.53555 25.4501 4.95273C26.0807 4.23625 26.9451 3.25539 26.9451 1.43195C26.9451 0.641016 26.3041 0 25.5132 0C24.7222 0 24.0812 0.641016 24.0812 1.43195C24.0812 2.17422 23.8039 2.48875 23.3007 3.06008C22.663 3.78367 21.79 4.77508 21.79 6.63477C21.79 8.49203 22.6611 9.47203 23.297 10.1875C23.8029 10.756 24.0812 11.0696 24.0812 11.8377C24.0812 12.6286 24.7222 13.2696 25.5132 13.2696C26.3041 13.2696 26.9451 12.6286 26.9451 11.8371C26.9451 9.97984 26.074 8.99984 25.4382 8.28438C24.9322 7.71602 24.6539 7.40242 24.6539 6.63437Z" fill="#4E2F2D"/>
<path d="M31.8616 6.63437C31.8616 5.8568 32.1446 5.53555 32.6578 4.95273C33.2883 4.23625 34.1528 3.25539 34.1528 1.43195C34.1528 0.641016 33.5117 0 32.7208 0C31.9299 0 31.2889 0.641016 31.2889 1.43195C31.2889 2.17422 31.0115 2.48875 30.5084 3.06008C29.8706 3.78367 28.9977 4.77508 28.9977 6.63477C28.9977 8.49203 29.8688 9.47203 30.5046 10.1875C31.0106 10.756 31.2889 11.0696 31.2889 11.8377C31.2889 12.6286 31.9299 13.2696 32.7208 13.2696C33.5117 13.2696 34.1528 12.6286 34.1528 11.8371C34.1528 9.97984 33.2817 8.99984 32.6458 8.28438C32.1399 7.71602 31.8616 7.40242 31.8616 6.63437Z" fill="#4E2F2D"/>
<path d="M18.2266 8.2625C17.7235 7.69117 17.4462 7.37656 17.4462 6.63437C17.4462 5.8568 17.7288 5.53555 18.2424 4.95273C18.8729 4.23672 19.7374 3.25539 19.7374 1.43195C19.7374 0.641016 19.0963 0 18.3054 0C17.5145 0 16.8734 0.641016 16.8734 1.43195C16.8734 2.17422 16.5966 2.48875 16.0935 3.06062C15.4558 3.78422 14.5823 4.77562 14.5823 6.63531C14.5823 8.45867 15.4463 9.44008 16.0773 10.1561C16.5909 10.7389 16.8734 11.0597 16.8734 11.8377C16.8734 12.6287 17.5145 13.2697 18.3054 13.2697C19.0963 13.2697 19.7374 12.6287 19.7378 11.8372C19.7379 9.97805 18.8644 8.98664 18.2266 8.2625Z" fill="#4E2F2D"/>
</svg>
