<svg width="40" height="40" viewBox="0 0 40 40" fill="none" xmlns="http://www.w3.org/2000/svg">
<g clip-path="url(#clip0)">
<path d="M38.7124 15.0215H33.5193V17.5966H37.4248V28.1545H2.57508V17.5966H6.48063V15.0215H1.28758C0.576406 15.0215 0 15.5979 0 16.309V29.442C0 30.1532 0.576406 30.7296 1.28758 30.7296H38.7125C39.4237 30.7296 40.0001 30.1532 40.0001 29.442V16.309C40 15.5979 39.4236 15.0215 38.7124 15.0215Z" fill="#4E2F2D"/>
<path d="M33.5193 6.05151H6.48069C5.76952 6.05151 5.19312 6.62792 5.19312 7.33909V24.1632C5.19312 24.8743 5.76952 25.4508 6.48069 25.4508H33.5193C34.2305 25.4508 34.8069 24.8748 34.8069 24.1632V7.33909C34.8069 6.62792 34.2305 6.05151 33.5193 6.05151ZM32.2318 22.8756H7.76819V8.62667H32.2317V22.8756H32.2318Z" fill="#4E2F2D"/>
<path d="M33.5193 17.7252H6.48071V20.3003H33.5193V17.7252Z" fill="#4E2F2D"/>
<path d="M4.50633 28.1545C3.79516 28.1545 3.21875 28.7309 3.21875 29.4421V32.661C3.21875 33.3722 3.79516 33.9486 4.50633 33.9486C5.2175 33.9486 5.7939 33.3722 5.7939 32.661V29.4421C5.7939 28.7309 5.2175 28.1545 4.50633 28.1545Z" fill="#4E2F2D"/>
<path d="M35.4935 28.1545C34.7823 28.1545 34.2059 28.7309 34.2059 29.4421V32.661C34.2059 33.3722 34.7823 33.9486 35.4935 33.9486C36.2047 33.9486 36.7811 33.3722 36.7811 32.661V29.4421C36.781 28.7309 36.2046 28.1545 35.4935 28.1545Z" fill="#4E2F2D"/>
<path d="M21.2446 7.33911H18.6696V19.0129H21.2446V7.33911Z" fill="#4E2F2D"/>
</g>
<defs>
<clipPath id="clip0">
<rect width="40" height="40" fill="white"/>
</clipPath>
</defs>
</svg>
