<svg width="40" height="40" viewBox="0 0 40 40" fill="none" xmlns="http://www.w3.org/2000/svg">
<path d="M19.5061 13.0453C15.1719 13.0453 11.646 16.5712 11.646 20.9054H14.1151C14.1151 17.9326 16.5333 15.5144 19.5061 15.5144C22.4785 15.5144 24.897 17.9329 24.897 20.9054H27.3662C27.3662 16.5712 23.8402 13.0453 19.5061 13.0453Z" fill="#4E2F2D"/>
<path d="M31.2019 9.25055C30.7197 8.76821 29.9386 8.76821 29.4562 9.25055L27.5221 11.1847C27.0398 11.6666 27.0398 12.4484 27.5221 12.9304C27.7633 13.1716 28.0789 13.2921 28.3949 13.2921C28.7109 13.2921 29.0266 13.1716 29.2677 12.9304L31.2019 10.9963C31.6843 10.5143 31.6843 9.73243 31.2019 9.25055Z" fill="#4E2F2D"/>
<path d="M19.5473 4.4032C18.8654 4.4032 18.3127 4.95585 18.3127 5.63773V8.43609C18.3127 9.11796 18.8654 9.67062 19.5473 9.67062C20.2291 9.67062 20.7818 9.11796 20.7818 8.43609V5.63781C20.7818 4.95585 20.2291 4.4032 19.5473 4.4032Z" fill="#4E2F2D"/>
<path d="M11.5726 11.1844L9.59725 9.20906C9.1149 8.72719 8.33303 8.72719 7.85115 9.20906C7.36928 9.69141 7.36928 10.4733 7.85115 10.9552L9.82646 12.9305C10.0676 13.1716 10.3837 13.2922 10.6997 13.2922C11.0158 13.2922 11.3319 13.1716 11.5726 12.9305C12.0544 12.4481 12.0544 11.6663 11.5726 11.1844Z" fill="#4E2F2D"/>
<path d="M38.7655 19.6708C36.7729 19.6708 35.7194 20.5029 34.8725 21.1712C34.1602 21.7337 33.6453 22.1399 32.5104 22.1399C31.3755 22.1399 30.8606 21.7337 30.1483 21.1712C29.3013 20.5024 28.2479 19.6708 26.2553 19.6708C24.2631 19.6708 23.2096 20.5029 22.3627 21.1712C21.65 21.7337 21.1352 22.1399 20.0002 22.1399C18.8648 22.1399 18.3499 21.7337 17.6376 21.1712C16.7911 20.5024 15.7372 19.6708 13.745 19.6708C11.7524 19.6708 10.6989 20.5029 9.85242 21.1712C9.13969 21.7337 8.62484 22.1399 7.48984 22.1399C6.35445 22.1399 5.83961 21.7337 5.12727 21.1712C4.28078 20.5024 3.22688 19.6708 1.23469 19.6708C0.552656 19.6708 0 20.2234 0 20.9054C0 21.5873 0.552656 22.1399 1.23453 22.1399C2.36992 22.1399 2.88477 22.5461 3.59711 23.1087C4.44359 23.7774 5.49711 24.609 7.48969 24.609C9.48227 24.609 10.5358 23.7769 11.3823 23.1087C12.0946 22.5461 12.6095 22.1399 13.7448 22.1399C14.8802 22.1399 15.3951 22.5461 16.1074 23.1087C16.9539 23.7774 18.0078 24.609 20 24.609C21.9922 24.609 23.0461 23.7769 23.893 23.1087C24.6053 22.5461 25.1202 22.1399 26.2551 22.1399C27.3905 22.1399 27.9053 22.5461 28.618 23.1087C29.4645 23.7774 30.518 24.609 32.5102 24.609C34.5024 24.609 35.5559 23.7769 36.4024 23.1087C37.1152 22.5461 37.63 22.1399 38.7654 22.1399C39.4473 22.1399 39.9999 21.5873 39.9999 20.9054C40 20.2234 39.4473 19.6708 38.7655 19.6708Z" fill="#4E2F2D"/>
<path d="M38.7655 25.0206C36.7729 25.0206 35.7194 25.8527 34.8725 26.521C34.1602 27.0836 33.6453 27.4898 32.5104 27.4898C31.3755 27.4898 30.8606 27.0836 30.1483 26.521C29.3013 25.8523 28.2479 25.0206 26.2553 25.0206C24.2631 25.0206 23.2096 25.8527 22.3627 26.521C21.65 27.0836 21.1352 27.4898 20.0002 27.4898C18.8648 27.4898 18.3499 27.0836 17.6376 26.521C16.7911 25.8523 15.7372 25.0206 13.745 25.0206C11.7524 25.0206 10.6989 25.8527 9.85242 26.521C9.13969 27.0836 8.62484 27.4898 7.48984 27.4898C6.35445 27.4898 5.83961 27.0836 5.12727 26.521C4.28078 25.8523 3.22688 25.0206 1.23469 25.0206C0.552656 25.0206 0 25.5734 0 26.2552C0 26.9371 0.552656 27.4898 1.23453 27.4898C2.36992 27.4898 2.88477 27.8959 3.59711 28.4585C4.44359 29.1273 5.49711 29.9589 7.48969 29.9589C9.48227 29.9589 10.5358 29.1268 11.3823 28.4585C12.0946 27.8959 12.6095 27.4898 13.7448 27.4898C14.8802 27.4898 15.3951 27.8959 16.1074 28.4585C16.9539 29.1273 18.0078 29.9589 20 29.9589C21.9922 29.9589 23.0461 29.1268 23.893 28.4585C24.6053 27.8959 25.1202 27.4898 26.2551 27.4898C27.3905 27.4898 27.9053 27.8959 28.618 28.4585C29.4645 29.1273 30.518 29.9589 32.5102 29.9589C34.5024 29.9589 35.5559 29.1268 36.4024 28.4585C37.1152 27.8959 37.63 27.4898 38.7654 27.4898C39.4473 27.4898 39.9999 26.9371 39.9999 26.2552C40 25.5734 39.4473 25.0206 38.7655 25.0206Z" fill="#4E2F2D"/>
<path d="M38.7655 30.6584C36.7729 30.6584 35.7194 31.4906 34.8725 32.1588C34.1602 32.7214 33.6453 33.1276 32.5104 33.1276C31.3755 33.1276 30.8606 32.7214 30.1483 32.1588C29.3013 31.4901 28.2479 30.6584 26.2553 30.6584C24.2631 30.6584 23.2096 31.4906 22.3627 32.1588C21.65 32.7214 21.1352 33.1276 20.0002 33.1276C18.8648 33.1276 18.3499 32.7214 17.6376 32.1588C16.7911 31.4901 15.7372 30.6584 13.745 30.6584C11.7524 30.6584 10.6989 31.4906 9.85242 32.1588C9.13969 32.7214 8.62484 33.1276 7.48984 33.1276C6.35445 33.1276 5.83961 32.7214 5.12727 32.1588C4.28078 31.4901 3.22688 30.6584 1.23469 30.6584C0.552656 30.6584 0 31.2111 0 31.893C0 32.5749 0.552656 33.1275 1.23453 33.1275C2.36992 33.1275 2.88477 33.5337 3.59711 34.0963C4.44359 34.765 5.49711 35.5966 7.48969 35.5966C9.48227 35.5966 10.5358 34.7649 11.3823 34.0963C12.0946 33.5337 12.6095 33.1275 13.7448 33.1275C14.8802 33.1275 15.3951 33.5337 16.1074 34.0963C16.9539 34.765 18.0078 35.5966 20 35.5966C21.9922 35.5966 23.0461 34.7649 23.893 34.0963C24.6053 33.5337 25.1202 33.1275 26.2551 33.1275C27.3905 33.1275 27.9053 33.5337 28.618 34.0963C29.4645 34.765 30.518 35.5966 32.5102 35.5966C34.5024 35.5966 35.5559 34.7649 36.4024 34.0963C37.1152 33.5337 37.63 33.1275 38.7654 33.1275C39.4473 33.1275 39.9999 32.5749 39.9999 31.893C39.9999 31.2111 39.4473 30.6584 38.7655 30.6584Z" fill="#4E2F2D"/>
</svg>
